# xmcd
#
# Track frame offsets: 
#        150
#        22540
#        48105
#        66797
#        83890
#        101282
#        125470
#        157832
#        179207
#        197720
#        219925
#        245870
#
# Disc length: 3498 seconds
#
# Revision: 6
# Processed by: cddbd v1.5.2PL0 Copyright (c) Steve Scherf et al.
# Submitted via: ExactAudioCopy v1.3
#
DISCID=970da80c
DTITLE=רוני פיטרסון - רוני פיטרסון וחברים
DYEAR=1998
DGENRE=Blues
TTITLE0=זאב נחמה - היא לא תשוב
TTITLE1=רמי קליינשטיין - When's Something's Wrong With My Baby
TTITLE2=שלום חנוך - כהה כהה
TTITLE3=רוני פיטרסון - That's How Strong My Love Is
TTITLE4=מאיר אריאל - זרעי קיץ
TTITLE5=אביב גפן - הכי קרוב לבד
TTITLE6=אחינועם ניני - אילנות
TTITLE7=רוני פיטרסון - Something Wrong Going On
TTITLE8=מיכה שטרית - בדקה אחת שפויה
TTITLE9=רונית שחר - טרקתי את הדלת
TTITLE10=יזהר אשדות - הירושימה שלי
TTITLE11=ארקדי דוכין - נאמר כבר הכל
EXTD=YEAR: 1998
EXTT0=
EXTT1=
EXTT2=
EXTT3=
EXTT4=
EXTT5=
EXTT6=
EXTT7=
EXTT8=
EXTT9=
EXTT10=
EXTT11=
PLAYORDER=
